<?xml version="1.0" encoding="UTF-8" standalone="no"?>
<!DOCTYPE svg PUBLIC "-//W3C//DTD SVG 1.1//EN"
 "http://www.w3.org/Graphics/SVG/1.1/DTD/svg11.dtd">
<!-- Generated by graphviz version 2.38.0 (20140413.2041)
 -->
<!-- Title: data_flow Pages: 1 -->
<svg width="356pt" height="107pt"
 viewBox="0.00 0.00 356.00 107.00" xmlns="http://www.w3.org/2000/svg" xmlns:xlink="http://www.w3.org/1999/xlink">
<g id="graph0" class="graph" transform="scale(1 1) rotate(0) translate(4 103)">
<title>data_flow</title>
<polygon fill="white" stroke="none" points="-4,4 -4,-103 352,-103 352,4 -4,4"/>
<!-- msgitem -->
<g id="node1" class="node"><title>msgitem</title>
<text text-anchor="start" x="134.5" y="-80.1" font-family="Times New Roman,serif" font-size="18.00" fill="royalblue"> msgitm </text>
<text text-anchor="start" x="4" y="-55.3" font-family="Times New Roman,serif" font-size="14.00">0 </text>
<text text-anchor="start" x="67" y="-55.3" font-family="Times New Roman,serif" font-size="14.00">4 </text>
<text text-anchor="start" x="119" y="-55.3" font-family="Times New Roman,serif" font-size="14.00">5 </text>
<text text-anchor="start" x="148" y="-55.3" font-family="Times New Roman,serif" font-size="14.00">7 </text>
<text text-anchor="start" x="213" y="-55.3" font-family="Times New Roman,serif" font-size="14.00">8 </text>
<text text-anchor="start" x="334" y="-55.3" font-family="Times New Roman,serif" font-size="14.00">N</text>
<polygon fill="none" stroke="black" points="0,-22.5 0,-47.5 63,-47.5 63,-22.5 0,-22.5"/>
<text text-anchor="start" x="5" y="-31.3" font-family="Times New Roman,serif" font-size="14.00">sockaddr</text>
<polygon fill="none" stroke="black" points="63,-22.5 63,-47.5 115,-47.5 115,-22.5 63,-22.5"/>
<text text-anchor="start" x="68" y="-31.3" font-family="Times New Roman,serif" font-size="14.00">addrlen</text>
<polygon fill="none" stroke="black" points="115,-22.5 115,-47.5 144,-47.5 144,-22.5 115,-22.5"/>
<text text-anchor="start" x="120" y="-31.3" font-family="Times New Roman,serif" font-size="14.00">hdr</text>
<polygon fill="none" stroke="black" points="144,-22.5 144,-47.5 209,-47.5 209,-22.5 144,-22.5"/>
<text text-anchor="start" x="149" y="-31.3" font-family="Times New Roman,serif" font-size="14.00">numbytes</text>
<polygon fill="cyan" stroke="none" points="209,-22.5 209,-47.5 330,-47.5 330,-22.5 209,-22.5"/>
<polygon fill="none" stroke="black" points="209,-22.5 209,-47.5 330,-47.5 330,-22.5 209,-22.5"/>
<text text-anchor="start" x="214" y="-31.3" font-family="Times New Roman,serif" font-size="14.00">actual message data</text>
<text text-anchor="start" x="60.5" y="-7.3" font-family="Times New Roman,serif" font-size="14.00">message header</text>
<text text-anchor="start" x="232" y="-7.3" font-family="Times New Roman,serif" font-size="14.00">message data</text>
</g>
</g>
</svg>
