<?xml version="1.0" encoding="UTF-8" standalone="no"?>
<!DOCTYPE svg PUBLIC "-//W3C//DTD SVG 1.1//EN"
 "http://www.w3.org/Graphics/SVG/1.1/DTD/svg11.dtd">
<!-- Generated by graphviz version 2.38.0 (20140413.2041)
 -->
<!-- Title: data_flow Pages: 1 -->
<svg width="397pt" height="107pt"
 viewBox="0.00 0.00 397.00 107.00" xmlns="http://www.w3.org/2000/svg" xmlns:xlink="http://www.w3.org/1999/xlink">
<g id="graph0" class="graph" transform="scale(1 1) rotate(0) translate(4 103)">
<title>data_flow</title>
<polygon fill="white" stroke="none" points="-4,4 -4,-103 393,-103 393,4 -4,4"/>
<!-- msgitem -->
<g id="node1" class="node"><title>msgitem</title>
<text text-anchor="start" x="151" y="-80.1" font-family="Times New Roman,serif" font-size="18.00" fill="royalblue"> msgitem </text>
<text text-anchor="start" x="4.5" y="-55.3" font-family="Times New Roman,serif" font-size="14.00">0 </text>
<text text-anchor="start" x="67.5" y="-55.3" font-family="Times New Roman,serif" font-size="14.00">4 </text>
<text text-anchor="start" x="119.5" y="-55.3" font-family="Times New Roman,serif" font-size="14.00">5 </text>
<text text-anchor="start" x="148.5" y="-55.3" font-family="Times New Roman,serif" font-size="14.00">7 </text>
<text text-anchor="start" x="189.5" y="-55.3" font-family="Times New Roman,serif" font-size="14.00">8 </text>
<text text-anchor="start" x="254.5" y="-55.3" font-family="Times New Roman,serif" font-size="14.00">12 </text>
<text text-anchor="start" x="375.5" y="-55.3" font-family="Times New Roman,serif" font-size="14.00">N</text>
<polygon fill="none" stroke="black" points="0.5,-22.5 0.5,-47.5 63.5,-47.5 63.5,-22.5 0.5,-22.5"/>
<text text-anchor="start" x="5.5" y="-31.3" font-family="Times New Roman,serif" font-size="14.00">sockaddr</text>
<polygon fill="none" stroke="black" points="63.5,-22.5 63.5,-47.5 115.5,-47.5 115.5,-22.5 63.5,-22.5"/>
<text text-anchor="start" x="68.5" y="-31.3" font-family="Times New Roman,serif" font-size="14.00">addrlen</text>
<polygon fill="none" stroke="black" points="115.5,-22.5 115.5,-47.5 144.5,-47.5 144.5,-22.5 115.5,-22.5"/>
<text text-anchor="start" x="120.5" y="-31.3" font-family="Times New Roman,serif" font-size="14.00">hdr</text>
<polygon fill="none" stroke="black" points="144.5,-22.5 144.5,-47.5 185.5,-47.5 185.5,-22.5 144.5,-22.5"/>
<text text-anchor="start" x="149.5" y="-31.3" font-family="Times New Roman,serif" font-size="14.00">mflag</text>
<polygon fill="none" stroke="black" points="185.5,-22.5 185.5,-47.5 250.5,-47.5 250.5,-22.5 185.5,-22.5"/>
<text text-anchor="start" x="190.5" y="-31.3" font-family="Times New Roman,serif" font-size="14.00">numbytes</text>
<polygon fill="cyan" stroke="none" points="250.5,-22.5 250.5,-47.5 371.5,-47.5 371.5,-22.5 250.5,-22.5"/>
<polygon fill="none" stroke="black" points="250.5,-22.5 250.5,-47.5 371.5,-47.5 371.5,-22.5 250.5,-22.5"/>
<text text-anchor="start" x="255.5" y="-31.3" font-family="Times New Roman,serif" font-size="14.00">actual message data</text>
<text text-anchor="start" x="81.5" y="-7.3" font-family="Times New Roman,serif" font-size="14.00">message header</text>
<text text-anchor="start" x="273.5" y="-7.3" font-family="Times New Roman,serif" font-size="14.00">message data</text>
</g>
</g>
</svg>
