<?xml version="1.0" encoding="UTF-8" standalone="no"?>
<!DOCTYPE svg PUBLIC "-//W3C//DTD SVG 1.1//EN"
 "http://www.w3.org/Graphics/SVG/1.1/DTD/svg11.dtd">
<!-- Generated by graphviz version 2.38.0 (20140413.2041)
 -->
<!-- Title: buffer_usage Pages: 1 -->
<svg width="284pt" height="218pt"
 viewBox="0.00 0.00 284.34 218.00" xmlns="http://www.w3.org/2000/svg" xmlns:xlink="http://www.w3.org/1999/xlink">
<g id="graph0" class="graph" transform="scale(1 1) rotate(0) translate(4 214)">
<title>buffer_usage</title>
<polygon fill="white" stroke="none" points="-4,4 -4,-214 280.339,-214 280.339,4 -4,4"/>
<!-- eb -->
<g id="node1" class="node"><title>eb</title>
<polygon fill="cyan" stroke="black" points="217.595,-210 37.5952,-210 37.5952,-174 217.595,-174 217.595,-210"/>
<text text-anchor="start" x="87.5952" y="-188.2" font-family="Times New Roman,serif" font-size="16.00">empty buffer</text>
</g>
<!-- fill -->
<g id="node2" class="node"><title>fill</title>
<ellipse fill="indianred" stroke="black" cx="54.5952" cy="-105" rx="54.6905" ry="18"/>
<text text-anchor="middle" x="54.5952" y="-101.3" font-family="Times New Roman,serif" font-size="14.00">fill item data</text>
</g>
<!-- eb&#45;&gt;fill -->
<g id="edge1" class="edge"><title>eb&#45;&gt;fill</title>
<path fill="none" stroke="black" d="M112.823,-173.799C102.096,-161.309 87.4331,-144.236 75.5054,-130.348"/>
<polygon fill="black" stroke="black" points="78.0195,-127.903 68.849,-122.597 72.7091,-132.464 78.0195,-127.903"/>
<text text-anchor="middle" x="126.595" y="-144.8" font-family="Times New Roman,serif" font-size="14.00">empty item</text>
</g>
<!-- fb -->
<g id="node4" class="node"><title>fb</title>
<polygon fill="cyan" stroke="black" points="225.595,-36 45.5952,-36 45.5952,-0 225.595,-0 225.595,-36"/>
<text text-anchor="start" x="97.5952" y="-14.2" font-family="Times New Roman,serif" font-size="16.00">filled buffer</text>
</g>
<!-- fill&#45;&gt;fb -->
<g id="edge2" class="edge"><title>fill&#45;&gt;fb</title>
<path fill="none" stroke="black" d="M70.2128,-87.6111C82.0822,-75.1556 98.6069,-57.8149 112.074,-43.6832"/>
<polygon fill="black" stroke="black" points="114.826,-45.8677 119.191,-36.2138 109.759,-41.0386 114.826,-45.8677"/>
<text text-anchor="middle" x="128.095" y="-57.8" font-family="Times New Roman,serif" font-size="14.00">filled item</text>
</g>
<!-- process -->
<g id="node3" class="node"><title>process</title>
<ellipse fill="indianred" stroke="black" cx="201.595" cy="-105" rx="74.9875" ry="18"/>
<text text-anchor="middle" x="201.595" y="-101.3" font-family="Times New Roman,serif" font-size="14.00">process item data</text>
</g>
<!-- process&#45;&gt;eb -->
<g id="edge4" class="edge"><title>process&#45;&gt;eb</title>
<path fill="none" stroke="black" d="M188.655,-122.997C181.008,-132.829 171.008,-145.329 161.595,-156 158.55,-159.453 155.265,-163.016 151.98,-166.489"/>
<polygon fill="black" stroke="black" points="149.293,-164.233 144.881,-173.866 154.337,-169.087 149.293,-164.233"/>
<text text-anchor="middle" x="216.095" y="-144.8" font-family="Times New Roman,serif" font-size="14.00">processed item</text>
</g>
<!-- fb&#45;&gt;process -->
<g id="edge3" class="edge"><title>fb&#45;&gt;process</title>
<path fill="none" stroke="black" d="M148.833,-36.0493C158.402,-48.3728 171.48,-65.2157 182.222,-79.0495"/>
<polygon fill="black" stroke="black" points="179.658,-81.4547 188.556,-87.2067 185.187,-77.1616 179.658,-81.4547"/>
<text text-anchor="middle" x="207.595" y="-57.8" font-family="Times New Roman,serif" font-size="14.00">process item</text>
</g>
</g>
</svg>
