<?xml version="1.0" encoding="UTF-8" standalone="no"?>
<!DOCTYPE svg PUBLIC "-//W3C//DTD SVG 1.1//EN"
 "http://www.w3.org/Graphics/SVG/1.1/DTD/svg11.dtd">
<!-- Generated by graphviz version 2.38.0 (20140413.2041)
 -->
<!-- Title: request_structure Pages: 1 -->
<svg width="228pt" height="84pt"
 viewBox="0.00 0.00 228.00 84.00" xmlns="http://www.w3.org/2000/svg" xmlns:xlink="http://www.w3.org/1999/xlink">
<g id="graph0" class="graph" transform="scale(1 1) rotate(0) translate(4 80)">
<title>request_structure</title>
<polygon fill="white" stroke="none" points="-4,4 -4,-80 224,-80 224,4 -4,4"/>
<!-- rs -->
<g id="node1" class="node"><title>rs</title>
<text text-anchor="start" x="32" y="-57.6" font-family="Times New Roman,serif" font-size="18.00" fill="royalblue"> message structure </text>
<text text-anchor="start" x="4" y="-32.8" font-family="Times New Roman,serif" font-size="14.00">0</text>
<text text-anchor="start" x="73" y="-32.8" font-family="Times New Roman,serif" font-size="14.00">4</text>
<text text-anchor="start" x="121" y="-32.8" font-family="Times New Roman,serif" font-size="14.00">8</text>
<text text-anchor="start" x="206" y="-32.8" font-family="Times New Roman,serif" font-size="14.00">N</text>
<polygon fill="none" stroke="black" points="0,-0 0,-25 69,-25 69,-0 0,-0"/>
<text text-anchor="start" x="5" y="-8.8" font-family="Times New Roman,serif" font-size="14.00">process id</text>
<polygon fill="none" stroke="black" points="69,-0 69,-25 117,-25 117,-0 69,-0"/>
<text text-anchor="start" x="74" y="-8.8" font-family="Times New Roman,serif" font-size="14.00">user id</text>
<polygon fill="cyan" stroke="none" points="117,-0 117,-25 202,-25 202,-0 117,-0"/>
<polygon fill="none" stroke="black" points="117,-0 117,-25 202,-25 202,-0 117,-0"/>
<text text-anchor="start" x="122" y="-8.8" font-family="Times New Roman,serif" font-size="14.00">message data</text>
</g>
</g>
</svg>
