<?xml version="1.0" encoding="UTF-8" standalone="no"?>
<!DOCTYPE svg PUBLIC "-//W3C//DTD SVG 1.1//EN"
 "http://www.w3.org/Graphics/SVG/1.1/DTD/svg11.dtd">
<!-- Generated by graphviz version 2.26.3 (20100126.1600)
 -->
<!-- Title: request_structure Pages: 1 -->
<svg width="312pt" height="82pt"
 viewBox="0.00 0.00 312.00 82.00" xmlns="http://www.w3.org/2000/svg" xmlns:xlink="http://www.w3.org/1999/xlink">
<g id="graph1" class="graph" transform="scale(1 1) rotate(0) translate(4 78)">
<title>request_structure</title>
<polygon fill="white" stroke="white" points="-4,5 -4,-78 309,-78 309,5 -4,5"/>
<!-- rs -->
<g id="node1" class="node"><title>rs</title>
<text text-anchor="start" x="18" y="-55.3" font-family="Times Roman,serif" font-size="18.00" fill="royalblue"> request message structure </text>
<text text-anchor="start" x="4" y="-31.7333" font-family="Times Roman,serif" font-size="14.00">0</text>
<text text-anchor="start" x="85" y="-31.7333" font-family="Times Roman,serif" font-size="14.00">4</text>
<text text-anchor="start" x="153" y="-31.7333" font-family="Times Roman,serif" font-size="14.00">8</text>
<text text-anchor="start" x="289" y="-31.7333" font-family="Times Roman,serif" font-size="14.00">N</text>
<polygon fill="none" stroke="black" points="0,-0 0,-24 81,-24 81,-0 0,-0"/>
<text text-anchor="start" x="6.5" y="-8.73333" font-family="Times Roman,serif" font-size="14.00">process id</text>
<polygon fill="none" stroke="black" points="81,-0 81,-24 149,-24 149,-0 81,-0"/>
<text text-anchor="start" x="91.5" y="-8.73333" font-family="Times Roman,serif" font-size="14.00">user id</text>
<polygon fill="cyan" stroke="cyan" points="149,-0 149,-24 285,-24 285,-0 149,-0"/>
<polygon fill="none" stroke="black" points="149,-0 149,-24 285,-24 285,-0 149,-0"/>
<text text-anchor="start" x="173" y="-8.73333" font-family="Times Roman,serif" font-size="14.00">request data</text>
</g>
</g>
</svg>
