<?xml version="1.0" encoding="UTF-8" standalone="no"?>
<!DOCTYPE svg PUBLIC "-//W3C//DTD SVG 1.1//EN"
 "http://www.w3.org/Graphics/SVG/1.1/DTD/svg11.dtd">
<!-- Generated by graphviz version 2.38.0 (20140413.2041)
 -->
<!-- Title: request_structure Pages: 1 -->
<svg width="229pt" height="84pt"
 viewBox="0.00 0.00 229.00 84.00" xmlns="http://www.w3.org/2000/svg" xmlns:xlink="http://www.w3.org/1999/xlink">
<g id="graph0" class="graph" transform="scale(1 1) rotate(0) translate(4 80)">
<title>request_structure</title>
<polygon fill="white" stroke="none" points="-4,4 -4,-80 225,-80 225,4 -4,4"/>
<!-- rs -->
<g id="node1" class="node"><title>rs</title>
<text text-anchor="start" x="4.5" y="-57.6" font-family="Times New Roman,serif" font-size="18.00" fill="royalblue"> request message structure </text>
<text text-anchor="start" x="4.5" y="-32.8" font-family="Times New Roman,serif" font-size="14.00">0</text>
<text text-anchor="start" x="56.5" y="-32.8" font-family="Times New Roman,serif" font-size="14.00">4</text>
<text text-anchor="start" x="127.5" y="-32.8" font-family="Times New Roman,serif" font-size="14.00">8</text>
<text text-anchor="start" x="207.5" y="-32.8" font-family="Times New Roman,serif" font-size="14.00">N</text>
<polygon fill="none" stroke="black" points="0.5,-0 0.5,-25 52.5,-25 52.5,-0 0.5,-0"/>
<text text-anchor="start" x="7.5" y="-8.8" font-family="Times New Roman,serif" font-size="14.00">user id</text>
<polygon fill="none" stroke="black" points="52.5,-0 52.5,-25 123.5,-25 123.5,-0 52.5,-0"/>
<text text-anchor="start" x="58.5" y="-8.8" font-family="Times New Roman,serif" font-size="14.00">process id</text>
<polygon fill="cyan" stroke="none" points="123.5,-0 123.5,-25 203.5,-25 203.5,-0 123.5,-0"/>
<polygon fill="none" stroke="black" points="123.5,-0 123.5,-25 203.5,-25 203.5,-0 123.5,-0"/>
<text text-anchor="start" x="129.5" y="-8.8" font-family="Times New Roman,serif" font-size="14.00">request data</text>
</g>
</g>
</svg>
